<?xml version="1.0" encoding="UTF-8" standalone="no"?>
<svg xmlns="http://www.w3.org/2000/svg" viewBox="0 0 1547 1183" width="1547" height="1183" version="1.1">
  <title>IMS — Innovative Movement Solutions</title>
  <desc>Logo for Innovative Movement Solutions, Scripps Ranch, San Diego</desc>
  <g transform="translate(0.000000,1183.000000) scale(0.100000,-0.100000)" fill="#0E1116" fill-rule="evenodd" stroke="none">
    <path d="M222 10678 l3 -953 953 -3 952 -2 0 955 0 955 -955 0 -955 0 2 -952z
M3630 8131 c0 -3759 -1 -3863 -56 -4075 -38 -146 -149 -294 -269 -358 -133
-70 -403 -111 -591 -89 -124 15 -191 34 -278 79 -153 80 -249 220 -302 443
-17 70 -19 207 -24 2344 l-5 2270 -953 3 -952 2 3 -2307 c4 -2531 0 -2387 63
-2691 124 -604 410 -1059 871 -1385 408 -288 1040 -460 1693 -460 328 0 600
35 915 118 439 115 764 288 1034 549 378 368 577 833 668 1566 17 135 18 270
18 1928 0 1245 3 1782 11 1782 8 0 325 -1565 1072 -5303 l75 -377 871 0 872 0
338 1687 c186 929 440 2199 565 2823 l228 1135 6 -210 c4 -115 11 -817 17
-1560 12 -1686 16 -1820 66 -2110 138 -804 585 -1413 1279 -1746 264 -127 453
-182 935 -274 l184 -35 378 0 379 0 247 45 c136 24 312 61 391 80 843 212
1456 754 1726 1526 184 526 221 1171 104 1836 -68 389 -225 760 -448 1058 -93
124 -285 323 -411 424 -117 94 -345 248 -545 369 -251 150 -823 470 -1130 632
-482 254 -648 355 -760 465 -247 244 -328 576 -229 946 78 292 247 458 541
530 118 29 355 32 453 5 164 -44 304 -143 393 -278 123 -187 157 -350 157
-760 l0 -188 997 0 996 0 -7 138 c-21 424 -28 538 -41 658 -59 533 -238 992
-522 1344 -83 102 -260 272 -366 350 -323 239 -702 391 -1187 476 -202 36
-337 45 -735 54 -532 11 -3672 13 -3679 1 -4 -6 -70 -343 -116 -596 -5 -27
-28 -147 -50 -265 -23 -118 -47 -249 -55 -290 -8 -41 -32 -172 -55 -290 -23
-118 -70 -370 -106 -560 -36 -190 -90 -473 -119 -630 -30 -157 -79 -418 -110
-580 -87 -459 -165 -870 -175 -925 -10 -52 -81 -429 -174 -920 -30 -159 -76
-400 -101 -535 -26 -135 -48 -246 -50 -248 -5 -5 -42 116 -55 178 -6 30 -29
148 -51 263 -90 473 -121 639 -184 967 -36 190 -84 437 -105 550 -21 113 -53
277 -70 365 -29 150 -53 276 -149 783 -22 114 -58 303 -80 420 -69 359 -120
625 -172 902 -28 146 -71 371 -95 500 -25 129 -49 258 -54 285 -39 217 -93
489 -105 530 -15 55 -43 87 -88 104 -20 8 -448 11 -1383 11 l-1354 0 0 -3479z
m8285 -2221 c569 -309 859 -483 967 -579 189 -171 304 -432 315 -722 7 -159
-5 -258 -47 -391 -73 -231 -224 -397 -439 -484 -250 -101 -619 -80 -851 49
-69 39 -197 166 -234 232 -41 75 -84 211 -96 306 -15 121 -30 1097 -23 1482
l6 327 51 -29 c28 -15 186 -101 351 -191z M10942 1184 c-91 -45 -137 -135
-130 -257 4 -91 36 -158 118 -250 94 -106 118 -168 99 -257 -12 -58 -44 -95
-93 -108 -41 -12 -97 0 -117 24 -13 16 -16 106 -4 144 6 18 2 20 -48 20 -64 0
-66 -3 -73 -100 -11 -130 60 -200 201 -200 56 0 82 5 123 26 107 53 161 193
127 326 -18 71 -44 116 -120 203 -78 89 -98 135 -93 210 5 74 33 120 83 134
39 11 101 0 123 -22 16 -16 20 -76 9 -119 l-7 -28 59 0 60 0 7 46 c9 63 0 131
-23 163 -53 73 -200 95 -301 45z M765 1188 c-6 -19 -205 -957 -205 -968 0 -6
27 -10 60 -10 33 0 60 2 60 5 0 7 201 948 206 968 5 15 -2 17 -56 17 -39 0
-62 -4 -65 -12z M5826 1183 c-5 -20 -206 -961 -206 -968 0 -3 25 -5 55 -5 30
0 55 3 55 8 0 12 150 706 155 717 3 6 2 -155 -1 -358 l-7 -367 51 0 50 0 148
370 c82 204 150 367 151 363 2 -5 -32 -171 -76 -370 l-78 -363 58 0 c46 0 59
3 63 18 7 21 206 956 206 966 0 4 -39 5 -86 4 l-87 -3 -138 -350 c-76 -192
-143 -359 -149 -370 -11 -21 -6 442 6 633 l6 92 -85 0 c-73 0 -86 -3 -91 -17z
M11985 1188 c-7 -19 -205 -956 -205 -969 0 -6 22 -9 57 -7 l58 3 97 455 c53
250 100 472 103 493 l7 37 -56 0 c-36 0 -58 -5 -61 -12z M4191 1118 c-7 -35
-15 -71 -17 -81 -5 -16 0 -18 52 -15 l58 3 11 45 c6 25 14 60 18 78 l7 32 -59
0 -58 0 -12 -62z M13221 1118 c-7 -35 -15 -71 -17 -81 -5 -16 0 -18 52 -15
l58 3 11 45 c6 25 14 60 18 78 l7 32 -59 0 -58 0 -12 -62z M3837 1078 c-9 -29
-21 -75 -29 -103 -14 -50 -14 -50 -59 -53 -45 -3 -46 -3 -56 -47 l-10 -45 43
0 c24 0 44 -2 44 -5 0 -3 -22 -109 -50 -236 -59 -273 -61 -306 -21 -351 26
-30 35 -33 101 -36 39 -3 75 0 80 4 5 5 11 30 15 56 l7 46 -41 -5 c-47 -6 -71
8 -71 43 0 21 83 423 96 467 4 14 17 17 69 17 l64 0 8 43 9 42 -63 3 c-35 2
-63 6 -63 10 0 4 9 45 20 92 26 115 28 110 -29 110 l-50 0 -14 -52z M10247
1078 c-9 -29 -21 -75 -29 -103 -14 -50 -14 -50 -59 -53 -45 -3 -46 -3 -56 -47
l-10 -45 43 0 c24 0 44 -2 44 -5 0 -3 -22 -109 -50 -236 -59 -273 -61 -306
-21 -351 26 -30 35 -33 101 -36 39 -3 75 0 80 4 5 5 11 30 15 56 l7 46 -41 -5
c-47 -6 -71 8 -71 43 0 21 83 423 96 467 4 14 17 17 69 17 l64 0 8 43 9 42
-63 3 c-35 2 -63 6 -63 10 0 4 9 45 20 92 26 115 28 110 -29 110 l-50 0 -14
-52z M12867 1078 c-9 -29 -21 -75 -29 -103 -14 -50 -14 -50 -59 -53 -45 -3
-46 -3 -56 -47 l-10 -45 43 0 c24 0 44 -2 44 -5 0 -3 -22 -109 -50 -236 -59
-273 -61 -306 -21 -351 26 -30 35 -33 101 -36 39 -3 75 0 80 4 5 5 11 30 15
56 l7 46 -41 -5 c-47 -6 -71 8 -71 43 0 21 83 423 96 467 4 14 17 17 69 17
l64 0 8 43 9 42 -63 3 c-35 2 -63 6 -63 10 0 4 9 45 20 92 26 115 28 110 -29
110 l-50 0 -14 -52z M2226 926 c-48 -18 -90 -58 -116 -110 -11 -23 -38 -127
-61 -231 -44 -206 -45 -251 -9 -311 60 -96 252 -104 337 -12 37 39 61 107 99
279 54 248 42 329 -53 375 -49 23 -147 28 -197 10z m129 -100 c52 -22 53 -53
10 -252 -45 -211 -50 -229 -82 -254 -35 -27 -106 -27 -133 0 -28 28 -26 74 10
238 48 218 56 240 93 262 38 24 56 25 102 6z M6626 926 c-48 -18 -90 -58 -116
-110 -11 -23 -38 -127 -61 -231 -44 -206 -45 -251 -9 -311 60 -96 252 -104
337 -12 37 39 61 107 99 279 54 248 42 329 -53 375 -49 23 -147 28 -197 10z
m129 -100 c52 -22 53 -53 10 -252 -45 -211 -50 -229 -82 -254 -35 -27 -106
-27 -133 0 -28 28 -26 74 10 238 48 218 56 240 93 262 38 24 56 25 102 6z
M11466 926 c-48 -18 -90 -58 -116 -110 -11 -23 -38 -127 -61 -231 -44 -206
-45 -251 -9 -311 60 -96 252 -104 337 -12 37 39 61 107 99 279 54 248 42 329
-53 375 -49 23 -147 28 -197 10z m129 -100 c52 -22 53 -53 10 -252 -45 -211
-50 -229 -82 -254 -35 -27 -106 -27 -133 0 -28 28 -26 74 10 238 48 218 56
240 93 262 38 24 56 25 102 6z M13546 926 c-48 -18 -90 -58 -116 -110 -11 -23
-38 -127 -61 -231 -44 -206 -45 -251 -9 -311 60 -96 252 -104 337 -12 37 39
61 107 99 279 54 248 42 329 -53 375 -49 23 -147 28 -197 10z m129 -100 c52
-22 53 -53 10 -252 -45 -211 -50 -229 -82 -254 -35 -27 -106 -27 -133 0 -28
28 -26 74 10 238 48 218 56 240 93 262 38 24 56 25 102 6z M1160 919 c-14 -5
-38 -22 -54 -37 l-28 -27 7 33 7 32 -51 0 c-44 0 -51 -3 -56 -22 -11 -47 -145
-678 -145 -683 0 -3 26 -5 58 -5 l58 0 53 247 c30 137 60 265 68 286 30 75
107 109 161 71 16 -11 22 -25 22 -54 0 -29 -64 -352 -105 -527 -5 -22 -2 -23
55 -23 33 0 60 2 60 5 0 2 25 121 55 263 30 143 55 284 55 316 0 50 -4 60 -34
93 -31 34 -38 37 -97 40 -35 1 -75 -2 -89 -8z M1730 919 c-14 -5 -38 -22 -54
-37 l-28 -27 7 33 7 32 -51 0 c-44 0 -51 -3 -56 -22 -11 -47 -145 -678 -145
-683 0 -3 26 -5 58 -5 l58 0 53 247 c30 137 60 265 68 286 30 75 107 109 161
71 16 -11 22 -25 22 -54 0 -29 -64 -352 -105 -527 -5 -22 -2 -23 55 -23 33 0
60 2 60 5 0 2 25 121 55 263 30 143 55 284 55 316 0 50 -4 60 -34 93 -31 34
-38 37 -97 40 -35 1 -75 -2 -89 -8z M3275 914 c-63 -33 -106 -92 -120 -167
l-7 -37 55 0 c54 0 55 0 61 34 10 52 50 86 100 86 63 0 81 -18 80 -78 -1 -73
-20 -95 -111 -127 -172 -61 -239 -107 -265 -184 -18 -55 -16 -142 5 -175 27
-41 75 -66 129 -66 58 0 95 13 132 48 l28 27 -7 -32 -7 -33 55 0 c62 0 58 -6
72 105 4 28 24 128 46 224 58 259 51 324 -40 371 -50 25 -161 28 -206 4z m115
-439 c-31 -134 -65 -175 -143 -175 -41 0 -53 9 -66 44 -15 38 1 95 37 129 15
15 55 38 89 51 33 13 69 28 79 34 10 6 20 9 22 8 1 -2 -7 -43 -18 -91z M5025
913 c-86 -45 -109 -89 -156 -299 -60 -273 -52 -340 51 -392 52 -26 151 -30
203 -8 62 26 117 100 136 185 l9 41 -59 0 c-45 0 -59 -3 -59 -15 0 -35 -34
-97 -61 -110 -36 -19 -89 -19 -116 0 -32 22 -37 65 -17 155 l17 80 160 2 161
3 18 85 c23 113 22 148 -4 200 -32 63 -88 90 -182 90 -45 -1 -82 -7 -101 -17z
m149 -94 c35 -16 46 -54 34 -122 l-10 -57 -103 0 -103 0 14 61 c8 33 19 69 24
79 25 46 90 63 144 39z M7695 913 c-86 -45 -109 -89 -156 -299 -60 -273 -52
-340 51 -392 52 -26 151 -30 203 -8 62 26 117 100 136 185 l9 41 -59 0 c-45 0
-59 -3 -59 -15 0 -35 -34 -97 -61 -110 -36 -19 -89 -19 -116 0 -32 22 -37 65
-17 155 l17 80 160 2 161 3 18 85 c23 113 22 148 -4 200 -32 63 -88 90 -182
90 -45 -1 -82 -7 -101 -17z m149 -94 c35 -16 46 -54 34 -122 l-10 -57 -103 0
-103 0 14 61 c8 33 19 69 24 79 25 46 90 63 144 39z M8325 914 c-16 -8 -39
-24 -51 -35 -21 -19 -21 -19 -16 11 4 30 4 30 -45 30 l-50 0 -75 -352 -75
-353 55 -3 c30 -2 56 -1 59 2 3 2 29 118 59 257 30 139 62 268 71 287 19 40
66 72 106 72 36 0 67 -32 67 -70 0 -16 -25 -144 -55 -285 -30 -140 -55 -257
-55 -260 0 -3 26 -5 58 -5 l58 0 54 253 c29 138 61 268 71 289 24 47 64 78
103 78 40 0 52 -9 65 -44 11 -29 -2 -104 -78 -449 l-28 -127 58 0 c46 0 59 3
63 18 23 75 109 508 109 552 2 101 -46 150 -143 150 -57 0 -93 -15 -129 -54
-30 -32 -34 -32 -50 -3 -7 13 -25 31 -41 40 -36 22 -125 22 -165 1z M9115 913
c-86 -45 -109 -89 -156 -299 -60 -273 -52 -340 51 -392 52 -26 151 -30 203 -8
62 26 117 100 136 185 l9 41 -59 0 c-45 0 -59 -3 -59 -15 0 -35 -34 -97 -61
-110 -36 -19 -89 -19 -116 0 -32 22 -37 65 -17 155 l17 80 160 2 161 3 18 85
c23 113 22 148 -4 200 -32 63 -88 90 -182 90 -45 -1 -82 -7 -101 -17z m149
-94 c35 -16 46 -54 34 -122 l-10 -57 -103 0 -103 0 14 61 c8 33 19 69 24 79
25 46 90 63 144 39z M9760 919 c-14 -5 -38 -22 -54 -37 l-28 -27 7 33 7 32
-51 0 c-44 0 -51 -3 -56 -22 -11 -47 -145 -678 -145 -683 0 -3 26 -5 58 -5
l58 0 53 247 c30 137 60 265 68 286 30 75 107 109 161 71 16 -11 22 -25 22
-54 0 -29 -64 -352 -105 -527 -5 -22 -2 -23 55 -23 33 0 60 2 60 5 0 2 25 121
55 263 30 143 55 284 55 316 0 50 -4 60 -34 93 -31 34 -38 37 -97 40 -35 1
-75 -2 -89 -8z M14180 919 c-14 -5 -38 -22 -54 -37 l-28 -27 7 33 7 32 -51 0
c-44 0 -51 -3 -56 -22 -11 -47 -145 -678 -145 -683 0 -3 26 -5 58 -5 l58 0 53
247 c30 137 60 265 68 286 30 75 107 109 161 71 16 -11 22 -25 22 -54 0 -29
-64 -352 -105 -527 -5 -22 -2 -23 55 -23 33 0 60 2 60 5 0 2 25 121 55 263 30
143 55 284 55 316 0 50 -4 60 -34 93 -31 34 -38 37 -97 40 -35 1 -75 -2 -89
-8z M14629 907 c-64 -34 -102 -93 -107 -167 -2 -32 -2 -70 2 -84 9 -36 51 -82
118 -127 60 -41 98 -88 98 -122 0 -33 -30 -84 -56 -96 -36 -16 -86 -14 -113 5
-19 14 -22 23 -19 66 l3 49 -55 -3 -55 -3 -3 -60 c-5 -107 58 -165 178 -165
137 0 230 88 230 217 0 81 -28 124 -115 184 -38 27 -78 61 -87 76 -43 68 1
153 79 153 21 0 43 -4 49 -8 21 -13 35 -52 28 -77 -6 -24 -5 -25 49 -25 53 0
56 1 62 29 8 38 -9 101 -36 130 -52 56 -172 69 -250 28z M2650 723 c0 -109 3
-269 7 -356 l6 -158 71 3 71 3 152 345 c83 190 152 349 152 353 1 4 -25 7 -56
5 l-57 -3 -116 -269 -115 -270 -3 272 -2 272 -55 0 -55 0 0 -197z M4145 908
c-6 -21 -145 -677 -145 -689 0 -6 22 -9 57 -7 l58 3 72 335 c40 184 72 343 73
353 0 14 -9 17 -55 17 -36 0 -57 -4 -60 -12z M4380 723 c0 -109 3 -269 7 -356
l6 -158 71 3 71 3 152 345 c83 190 152 349 152 353 1 4 -25 7 -56 5 l-57 -3
-116 -269 -115 -270 -3 272 -2 272 -55 0 -55 0 0 -197z M7050 723 c0 -109 3
-269 7 -356 l6 -158 71 3 71 3 152 345 c83 190 152 349 152 353 1 4 -25 7 -56
5 l-57 -3 -116 -269 -115 -270 -3 272 -2 272 -55 0 -55 0 0 -197z M12200 915
c0 -2 -25 -120 -55 -262 -30 -143 -55 -284 -55 -316 0 -51 4 -61 33 -93 26
-29 42 -37 79 -41 68 -8 114 4 154 40 l37 31 -8 -32 -7 -32 51 0 c44 0 51 3
56 23 11 46 145 677 145 682 0 3 -26 5 -58 5 l-58 0 -53 -247 c-30 -137 -60
-265 -68 -286 -30 -75 -107 -109 -161 -71 -16 11 -22 25 -22 54 0 29 64 352
105 528 5 21 2 22 -55 22 -33 0 -60 -2 -60 -5z M13175 908 c-6 -21 -145 -677
-145 -689 0 -6 22 -9 57 -7 l58 3 72 335 c40 184 72 343 73 353 0 14 -9 17
-55 17 -36 0 -57 -4 -60 -12z"/>
  </g>
  <g transform="translate(0.000000,1183.000000) scale(0.100000,-0.100000)" fill="#2A85BE" fill-rule="evenodd" stroke="none">
    <path d="M422 10675 l3 -735 735 0 735 0 3 735 2 735 -740 0 -740 0 2 -735z
M3818 7778 c-3 -3362 -4 -3608 -20 -3680 -75 -336 -227 -516 -549 -648 -219
-91 -478 -103 -686 -33 -327 109 -552 367 -635 728 l-22 100 -3 2143 -3 2142
-744 0 -744 0 -7 -92 c-4 -51 -5 -1027 -2 -2168 4 -2061 4 -2076 25 -2230 28
-199 35 -234 67 -360 131 -521 387 -900 790 -1167 425 -283 1069 -431 1711
-393 480 28 811 100 1124 247 585 274 962 794 1085 1498 8 44 17 98 21 120 4
22 9 1188 11 2592 l4 2551 87 7 c48 4 94 8 103 11 21 6 36 -61 159 -681 55
-280 108 -541 116 -580 19 -91 674 -3366 685 -3425 4 -25 22 -112 39 -195 31
-153 50 -247 234 -1180 121 -610 124 -622 142 -652 36 -57 6 -55 716 -54 644
1 653 2 660 21 4 11 37 168 73 348 145 717 514 2550 661 3282 85 426 159 793
164 815 9 45 32 160 56 280 8 44 19 98 24 120 4 22 15 76 24 120 9 44 27 134
41 200 13 66 106 527 205 1024 210 1050 216 1079 280 1271 144 437 333 742
636 1029 163 155 331 270 557 384 101 51 137 77 137 101 0 3 -479 6 -1064 6
l-1065 0 -25 -22 c-29 -27 -29 -23 -162 -738 -14 -74 -30 -157 -35 -185 -6
-27 -14 -72 -19 -100 -5 -27 -23 -122 -40 -210 -28 -149 -47 -247 -70 -370 -5
-27 -16 -88 -25 -135 -9 -47 -20 -107 -25 -135 -5 -27 -23 -122 -40 -210 -17
-88 -37 -194 -44 -235 -8 -41 -33 -172 -56 -290 -22 -118 -45 -237 -50 -265
-5 -27 -34 -183 -65 -345 -53 -281 -74 -393 -95 -505 -5 -27 -22 -120 -39
-205 -16 -85 -32 -168 -35 -185 -28 -150 -89 -470 -97 -510 -5 -27 -12 -66
-15 -85 -3 -19 -16 -89 -29 -155 -13 -66 -35 -181 -49 -255 -46 -247 -85 -453
-132 -695 -25 -132 -50 -265 -55 -295 -6 -30 -21 -109 -34 -175 -20 -104 -37
-195 -87 -458 -6 -33 -15 -56 -22 -54 -10 3 -19 47 -86 402 -17 88 -35 180
-40 205 -5 25 -23 119 -40 210 -17 91 -37 197 -45 235 -15 74 -46 238 -90 470
-14 77 -32 172 -40 210 -8 39 -26 133 -40 210 -15 77 -35 183 -45 235 -10 52
-28 147 -40 210 -12 63 -32 169 -45 235 -13 66 -38 194 -55 285 -17 91 -35
185 -40 210 -10 49 -36 188 -44 234 -6 36 -50 265 -81 421 -20 103 -36 189
-95 500 -6 28 -16 84 -25 125 -8 41 -33 172 -55 290 -55 289 -81 426 -129 680
-106 553 -132 688 -141 730 -5 25 -23 119 -40 210 -17 91 -35 188 -41 215 -5
28 -20 104 -32 170 l-23 120 -1217 3 -1217 2 -2 -3602z M12025 11364 c-607
-72 -1080 -246 -1435 -529 -388 -310 -659 -790 -750 -1330 -34 -205 -43 -337
-43 -610 1 -270 13 -419 47 -595 136 -689 502 -1213 1132 -1625 66 -42 131
-86 146 -96 15 -10 29 -19 31 -19 3 0 52 -29 110 -64 106 -66 456 -253 842
-451 325 -167 653 -343 729 -392 259 -167 429 -385 520 -664 75 -231 78 -602
6 -831 -128 -412 -449 -662 -894 -698 -123 -10 -309 1 -423 25 -277 58 -503
217 -615 431 -127 244 -143 425 -147 1614 -1 394 -5 629 -12 653 -15 55 -71
111 -166 168 -396 233 -716 495 -925 754 -103 129 -174 235 -292 439 -62 105
-116 191 -121 191 -19 0 -26 -590 -20 -1810 7 -1471 16 -1736 70 -2028 68
-362 221 -701 436 -962 63 -77 216 -228 294 -291 258 -208 654 -384 1030 -460
11 -2 40 -8 65 -13 58 -12 202 -37 310 -52 131 -19 690 -21 825 -3 341 44 633
114 877 209 190 75 393 184 544 293 129 93 326 291 416 418 215 305 324 594
395 1054 26 165 25 873 0 1095 -40 338 -105 568 -233 815 -172 335 -430 611
-804 860 -52 35 -113 75 -135 90 -42 28 -293 177 -380 225 -27 16 -122 69
-210 118 -239 135 -419 233 -620 337 -343 177 -603 321 -705 390 -78 53 -194
162 -261 247 -238 299 -299 801 -143 1184 110 270 324 461 614 546 91 27 103
28 305 27 194 -1 218 -3 309 -27 380 -102 608 -368 680 -795 12 -71 36 -334
36 -396 0 -14 77 -16 755 -16 l755 0 0 263 c0 311 -20 476 -85 722 -71 267
-220 561 -392 775 -62 77 -231 245 -313 311 -151 123 -429 274 -630 342 -222
76 -472 130 -755 162 -162 18 -613 18 -770 -1z M10942 1184 c-91 -45 -137
-135 -130 -257 4 -91 36 -158 118 -250 94 -106 118 -168 99 -257 -12 -58 -44
-95 -93 -108 -41 -12 -97 0 -117 24 -13 16 -16 106 -4 144 6 18 2 20 -48 20
-64 0 -66 -3 -73 -100 -11 -130 60 -200 201 -200 56 0 82 5 123 26 107 53 161
193 127 326 -18 71 -44 116 -120 203 -78 89 -98 135 -93 210 5 74 33 120 83
134 39 11 101 0 123 -22 16 -16 20 -76 9 -119 l-7 -28 59 0 60 0 7 46 c9 63 0
131 -23 163 -53 73 -200 95 -301 45z M765 1188 c-6 -19 -205 -957 -205 -968 0
-6 27 -10 60 -10 33 0 60 2 60 5 0 7 201 948 206 968 5 15 -2 17 -56 17 -39 0
-62 -4 -65 -12z M5826 1183 c-5 -20 -206 -961 -206 -968 0 -3 25 -5 55 -5 30
0 55 3 55 8 0 12 150 706 155 717 3 6 2 -155 -1 -358 l-7 -367 51 0 50 0 148
370 c82 204 150 367 151 363 2 -5 -32 -171 -76 -370 l-78 -363 58 0 c46 0 59
3 63 18 7 21 206 956 206 966 0 4 -39 5 -86 4 l-87 -3 -138 -350 c-76 -192
-143 -359 -149 -370 -11 -21 -6 442 6 633 l6 92 -85 0 c-73 0 -86 -3 -91 -17z
M11985 1188 c-7 -19 -205 -956 -205 -969 0 -6 22 -9 57 -7 l58 3 97 455 c53
250 100 472 103 493 l7 37 -56 0 c-36 0 -58 -5 -61 -12z M4191 1118 c-7 -35
-15 -71 -17 -81 -5 -16 0 -18 52 -15 l58 3 11 45 c6 25 14 60 18 78 l7 32 -59
0 -58 0 -12 -62z M13221 1118 c-7 -35 -15 -71 -17 -81 -5 -16 0 -18 52 -15
l58 3 11 45 c6 25 14 60 18 78 l7 32 -59 0 -58 0 -12 -62z M3837 1078 c-9 -29
-21 -75 -29 -103 -14 -50 -14 -50 -59 -53 -45 -3 -46 -3 -56 -47 l-10 -45 43
0 c24 0 44 -2 44 -5 0 -3 -22 -109 -50 -236 -59 -273 -61 -306 -21 -351 26
-30 35 -33 101 -36 39 -3 75 0 80 4 5 5 11 30 15 56 l7 46 -41 -5 c-47 -6 -71
8 -71 43 0 21 83 423 96 467 4 14 17 17 69 17 l64 0 8 43 9 42 -63 3 c-35 2
-63 6 -63 10 0 4 9 45 20 92 26 115 28 110 -29 110 l-50 0 -14 -52z M10247
1078 c-9 -29 -21 -75 -29 -103 -14 -50 -14 -50 -59 -53 -45 -3 -46 -3 -56 -47
l-10 -45 43 0 c24 0 44 -2 44 -5 0 -3 -22 -109 -50 -236 -59 -273 -61 -306
-21 -351 26 -30 35 -33 101 -36 39 -3 75 0 80 4 5 5 11 30 15 56 l7 46 -41 -5
c-47 -6 -71 8 -71 43 0 21 83 423 96 467 4 14 17 17 69 17 l64 0 8 43 9 42
-63 3 c-35 2 -63 6 -63 10 0 4 9 45 20 92 26 115 28 110 -29 110 l-50 0 -14
-52z M12867 1078 c-9 -29 -21 -75 -29 -103 -14 -50 -14 -50 -59 -53 -45 -3
-46 -3 -56 -47 l-10 -45 43 0 c24 0 44 -2 44 -5 0 -3 -22 -109 -50 -236 -59
-273 -61 -306 -21 -351 26 -30 35 -33 101 -36 39 -3 75 0 80 4 5 5 11 30 15
56 l7 46 -41 -5 c-47 -6 -71 8 -71 43 0 21 83 423 96 467 4 14 17 17 69 17
l64 0 8 43 9 42 -63 3 c-35 2 -63 6 -63 10 0 4 9 45 20 92 26 115 28 110 -29
110 l-50 0 -14 -52z M2226 926 c-48 -18 -90 -58 -116 -110 -11 -23 -38 -127
-61 -231 -44 -206 -45 -251 -9 -311 60 -96 252 -104 337 -12 37 39 61 107 99
279 54 248 42 329 -53 375 -49 23 -147 28 -197 10z m129 -100 c52 -22 53 -53
10 -252 -45 -211 -50 -229 -82 -254 -35 -27 -106 -27 -133 0 -28 28 -26 74 10
238 48 218 56 240 93 262 38 24 56 25 102 6z M6626 926 c-48 -18 -90 -58 -116
-110 -11 -23 -38 -127 -61 -231 -44 -206 -45 -251 -9 -311 60 -96 252 -104
337 -12 37 39 61 107 99 279 54 248 42 329 -53 375 -49 23 -147 28 -197 10z
m129 -100 c52 -22 53 -53 10 -252 -45 -211 -50 -229 -82 -254 -35 -27 -106
-27 -133 0 -28 28 -26 74 10 238 48 218 56 240 93 262 38 24 56 25 102 6z
M11466 926 c-48 -18 -90 -58 -116 -110 -11 -23 -38 -127 -61 -231 -44 -206
-45 -251 -9 -311 60 -96 252 -104 337 -12 37 39 61 107 99 279 54 248 42 329
-53 375 -49 23 -147 28 -197 10z m129 -100 c52 -22 53 -53 10 -252 -45 -211
-50 -229 -82 -254 -35 -27 -106 -27 -133 0 -28 28 -26 74 10 238 48 218 56
240 93 262 38 24 56 25 102 6z M13546 926 c-48 -18 -90 -58 -116 -110 -11 -23
-38 -127 -61 -231 -44 -206 -45 -251 -9 -311 60 -96 252 -104 337 -12 37 39
61 107 99 279 54 248 42 329 -53 375 -49 23 -147 28 -197 10z m129 -100 c52
-22 53 -53 10 -252 -45 -211 -50 -229 -82 -254 -35 -27 -106 -27 -133 0 -28
28 -26 74 10 238 48 218 56 240 93 262 38 24 56 25 102 6z M1160 919 c-14 -5
-38 -22 -54 -37 l-28 -27 7 33 7 32 -51 0 c-44 0 -51 -3 -56 -22 -11 -47 -145
-678 -145 -683 0 -3 26 -5 58 -5 l58 0 53 247 c30 137 60 265 68 286 30 75
107 109 161 71 16 -11 22 -25 22 -54 0 -29 -64 -352 -105 -527 -5 -22 -2 -23
55 -23 33 0 60 2 60 5 0 2 25 121 55 263 30 143 55 284 55 316 0 50 -4 60 -34
93 -31 34 -38 37 -97 40 -35 1 -75 -2 -89 -8z M1730 919 c-14 -5 -38 -22 -54
-37 l-28 -27 7 33 7 32 -51 0 c-44 0 -51 -3 -56 -22 -11 -47 -145 -678 -145
-683 0 -3 26 -5 58 -5 l58 0 53 247 c30 137 60 265 68 286 30 75 107 109 161
71 16 -11 22 -25 22 -54 0 -29 -64 -352 -105 -527 -5 -22 -2 -23 55 -23 33 0
60 2 60 5 0 2 25 121 55 263 30 143 55 284 55 316 0 50 -4 60 -34 93 -31 34
-38 37 -97 40 -35 1 -75 -2 -89 -8z M3275 914 c-63 -33 -106 -92 -120 -167
l-7 -37 55 0 c54 0 55 0 61 34 10 52 50 86 100 86 63 0 81 -18 80 -78 -1 -73
-20 -95 -111 -127 -172 -61 -239 -107 -265 -184 -18 -55 -16 -142 5 -175 27
-41 75 -66 129 -66 58 0 95 13 132 48 l28 27 -7 -32 -7 -33 55 0 c62 0 58 -6
72 105 4 28 24 128 46 224 58 259 51 324 -40 371 -50 25 -161 28 -206 4z m115
-439 c-31 -134 -65 -175 -143 -175 -41 0 -53 9 -66 44 -15 38 1 95 37 129 15
15 55 38 89 51 33 13 69 28 79 34 10 6 20 9 22 8 1 -2 -7 -43 -18 -91z M5025
913 c-86 -45 -109 -89 -156 -299 -60 -273 -52 -340 51 -392 52 -26 151 -30
203 -8 62 26 117 100 136 185 l9 41 -59 0 c-45 0 -59 -3 -59 -15 0 -35 -34
-97 -61 -110 -36 -19 -89 -19 -116 0 -32 22 -37 65 -17 155 l17 80 160 2 161
3 18 85 c23 113 22 148 -4 200 -32 63 -88 90 -182 90 -45 -1 -82 -7 -101 -17z
m149 -94 c35 -16 46 -54 34 -122 l-10 -57 -103 0 -103 0 14 61 c8 33 19 69 24
79 25 46 90 63 144 39z M7695 913 c-86 -45 -109 -89 -156 -299 -60 -273 -52
-340 51 -392 52 -26 151 -30 203 -8 62 26 117 100 136 185 l9 41 -59 0 c-45 0
-59 -3 -59 -15 0 -35 -34 -97 -61 -110 -36 -19 -89 -19 -116 0 -32 22 -37 65
-17 155 l17 80 160 2 161 3 18 85 c23 113 22 148 -4 200 -32 63 -88 90 -182
90 -45 -1 -82 -7 -101 -17z m149 -94 c35 -16 46 -54 34 -122 l-10 -57 -103 0
-103 0 14 61 c8 33 19 69 24 79 25 46 90 63 144 39z M8325 914 c-16 -8 -39
-24 -51 -35 -21 -19 -21 -19 -16 11 4 30 4 30 -45 30 l-50 0 -75 -352 -75
-353 55 -3 c30 -2 56 -1 59 2 3 2 29 118 59 257 30 139 62 268 71 287 19 40
66 72 106 72 36 0 67 -32 67 -70 0 -16 -25 -144 -55 -285 -30 -140 -55 -257
-55 -260 0 -3 26 -5 58 -5 l58 0 54 253 c29 138 61 268 71 289 24 47 64 78
103 78 40 0 52 -9 65 -44 11 -29 -2 -104 -78 -449 l-28 -127 58 0 c46 0 59 3
63 18 23 75 109 508 109 552 2 101 -46 150 -143 150 -57 0 -93 -15 -129 -54
-30 -32 -34 -32 -50 -3 -7 13 -25 31 -41 40 -36 22 -125 22 -165 1z M9115 913
c-86 -45 -109 -89 -156 -299 -60 -273 -52 -340 51 -392 52 -26 151 -30 203 -8
62 26 117 100 136 185 l9 41 -59 0 c-45 0 -59 -3 -59 -15 0 -35 -34 -97 -61
-110 -36 -19 -89 -19 -116 0 -32 22 -37 65 -17 155 l17 80 160 2 161 3 18 85
c23 113 22 148 -4 200 -32 63 -88 90 -182 90 -45 -1 -82 -7 -101 -17z m149
-94 c35 -16 46 -54 34 -122 l-10 -57 -103 0 -103 0 14 61 c8 33 19 69 24 79
25 46 90 63 144 39z M9760 919 c-14 -5 -38 -22 -54 -37 l-28 -27 7 33 7 32
-51 0 c-44 0 -51 -3 -56 -22 -11 -47 -145 -678 -145 -683 0 -3 26 -5 58 -5
l58 0 53 247 c30 137 60 265 68 286 30 75 107 109 161 71 16 -11 22 -25 22
-54 0 -29 -64 -352 -105 -527 -5 -22 -2 -23 55 -23 33 0 60 2 60 5 0 2 25 121
55 263 30 143 55 284 55 316 0 50 -4 60 -34 93 -31 34 -38 37 -97 40 -35 1
-75 -2 -89 -8z M14180 919 c-14 -5 -38 -22 -54 -37 l-28 -27 7 33 7 32 -51 0
c-44 0 -51 -3 -56 -22 -11 -47 -145 -678 -145 -683 0 -3 26 -5 58 -5 l58 0 53
247 c30 137 60 265 68 286 30 75 107 109 161 71 16 -11 22 -25 22 -54 0 -29
-64 -352 -105 -527 -5 -22 -2 -23 55 -23 33 0 60 2 60 5 0 2 25 121 55 263 30
143 55 284 55 316 0 50 -4 60 -34 93 -31 34 -38 37 -97 40 -35 1 -75 -2 -89
-8z M14629 907 c-64 -34 -102 -93 -107 -167 -2 -32 -2 -70 2 -84 9 -36 51 -82
118 -127 60 -41 98 -88 98 -122 0 -33 -30 -84 -56 -96 -36 -16 -86 -14 -113 5
-19 14 -22 23 -19 66 l3 49 -55 -3 -55 -3 -3 -60 c-5 -107 58 -165 178 -165
137 0 230 88 230 217 0 81 -28 124 -115 184 -38 27 -78 61 -87 76 -43 68 1
153 79 153 21 0 43 -4 49 -8 21 -13 35 -52 28 -77 -6 -24 -5 -25 49 -25 53 0
56 1 62 29 8 38 -9 101 -36 130 -52 56 -172 69 -250 28z M2650 723 c0 -109 3
-269 7 -356 l6 -158 71 3 71 3 152 345 c83 190 152 349 152 353 1 4 -25 7 -56
5 l-57 -3 -116 -269 -115 -270 -3 272 -2 272 -55 0 -55 0 0 -197z M4145 908
c-6 -21 -145 -677 -145 -689 0 -6 22 -9 57 -7 l58 3 72 335 c40 184 72 343 73
353 0 14 -9 17 -55 17 -36 0 -57 -4 -60 -12z M4380 723 c0 -109 3 -269 7 -356
l6 -158 71 3 71 3 152 345 c83 190 152 349 152 353 1 4 -25 7 -56 5 l-57 -3
-116 -269 -115 -270 -3 272 -2 272 -55 0 -55 0 0 -197z M7050 723 c0 -109 3
-269 7 -356 l6 -158 71 3 71 3 152 345 c83 190 152 349 152 353 1 4 -25 7 -56
5 l-57 -3 -116 -269 -115 -270 -3 272 -2 272 -55 0 -55 0 0 -197z M12200 915
c0 -2 -25 -120 -55 -262 -30 -143 -55 -284 -55 -316 0 -51 4 -61 33 -93 26
-29 42 -37 79 -41 68 -8 114 4 154 40 l37 31 -8 -32 -7 -32 51 0 c44 0 51 3
56 23 11 46 145 677 145 682 0 3 -26 5 -58 5 l-58 0 -53 -247 c-30 -137 -60
-265 -68 -286 -30 -75 -107 -109 -161 -71 -16 11 -22 25 -22 54 0 29 64 352
105 528 5 21 2 22 -55 22 -33 0 -60 -2 -60 -5z M13175 908 c-6 -21 -145 -677
-145 -689 0 -6 22 -9 57 -7 l58 3 72 335 c40 184 72 343 73 353 0 14 -9 17
-55 17 -36 0 -57 -4 -60 -12z"/>
  </g>
</svg>
