<?xml version="1.0" encoding="UTF-8"?>
<svg xmlns="http://www.w3.org/2000/svg" viewBox="0 0 1547 995" width="1547" height="995">
  <title>IMS — Innovative Movement Solutions</title>
  <!-- Black outline shape (underneath) -->
  <g transform="translate(0.000000,995.000000) scale(0.100000,-0.100000)" fill="#0E1116" fill-rule="evenodd" stroke="none">
    <path d="M222 8798 l3 -953 953 -3 952 -2 0 955 0 955 -955 0 -955 0 2 -952z
M3630 6251 c0 -3759 -1 -3863 -56 -4075 -38 -146 -149 -294 -269 -358 -133
-70 -403 -111 -591 -89 -124 15 -191 34 -278 79 -153 80 -249 220 -302 443
-17 70 -19 207 -24 2344 l-5 2270 -953 3 -952 2 3 -2307 c4 -2531 0 -2387 63
-2691 124 -604 410 -1059 871 -1385 408 -288 1040 -460 1693 -460 328 0 600
35 915 118 439 115 764 288 1034 549 378 368 577 833 668 1566 17 135 18 270
18 1928 0 1245 3 1782 11 1782 8 0 325 -1565 1072 -5303 l75 -377 871 0 872 0
338 1687 c186 929 440 2199 565 2823 l228 1135 6 -210 c4 -115 11 -817 17
-1560 12 -1686 16 -1820 66 -2110 138 -804 585 -1413 1279 -1746 264 -127 453
-182 935 -274 l184 -35 378 0 379 0 247 45 c136 24 312 61 391 80 843 212
1456 754 1726 1526 184 526 221 1171 104 1836 -68 389 -225 760 -448 1058 -93
124 -285 323 -411 424 -117 94 -345 248 -545 369 -251 150 -823 470 -1130 632
-482 254 -648 355 -760 465 -247 244 -328 576 -229 946 78 292 247 458 541
530 118 29 355 32 453 5 164 -44 304 -143 393 -278 123 -187 157 -350 157
-760 l0 -188 997 0 996 0 -7 138 c-21 424 -28 538 -41 658 -59 533 -238 992
-522 1344 -83 102 -260 272 -366 350 -323 239 -702 391 -1187 476 -202 36
-337 45 -735 54 -532 11 -3672 13 -3679 1 -4 -6 -70 -343 -116 -596 -5 -27
-28 -147 -50 -265 -23 -118 -47 -249 -55 -290 -8 -41 -32 -172 -55 -290 -23
-118 -70 -370 -106 -560 -36 -190 -90 -473 -119 -630 -30 -157 -79 -418 -110
-580 -87 -459 -165 -870 -175 -925 -10 -52 -81 -429 -174 -920 -30 -159 -76
-400 -101 -535 -26 -135 -48 -246 -50 -248 -5 -5 -42 116 -55 178 -6 30 -29
148 -51 262 -90 474 -121 640 -184 968 -36 190 -84 437 -105 550 -21 113 -53
277 -70 365 -29 150 -53 276 -149 783 -22 114 -58 303 -80 420 -69 359 -120
625 -172 902 -28 146 -71 371 -95 500 -25 129 -49 258 -54 285 -39 217 -93
489 -105 530 -15 55 -43 87 -88 104 -20 8 -448 11 -1383 11 l-1354 0 0 -3479z
m8285 -2221 c569 -309 859 -483 967 -579 189 -171 304 -432 315 -722 7 -159
-5 -258 -47 -391 -73 -231 -224 -397 -439 -484 -250 -101 -619 -80 -851 49
-69 39 -197 166 -234 232 -41 75 -84 211 -96 306 -15 121 -30 1097 -23 1482
l6 327 51 -29 c28 -15 186 -101 351 -191z"/>
  </g>
  <!-- Blue fill shape (on top, inset within outline) -->
  <g transform="translate(0.000000,995.000000) scale(0.100000,-0.100000)" fill="#2A85BE" fill-rule="evenodd" stroke="none">
    <path d="M422 8795 l3 -735 735 0 735 0 3 735 2 735 -740 0 -740 0 2 -735z
M3818 5898 c-3 -3362 -4 -3608 -20 -3680 -75 -336 -227 -516 -549 -648 -219
-91 -478 -103 -686 -33 -327 109 -552 367 -635 728 l-22 100 -3 2143 -3 2142
-744 0 -744 0 -7 -92 c-4 -51 -5 -1027 -2 -2168 4 -2061 4 -2076 25 -2230 28
-199 35 -234 67 -360 131 -521 387 -900 790 -1167 425 -283 1069 -431 1711
-393 480 28 811 100 1124 247 585 274 962 794 1085 1498 8 44 17 98 21 120 4
22 9 1188 11 2592 l4 2551 87 7 c48 4 94 8 103 11 21 6 36 -61 159 -681 55
-280 108 -541 116 -580 19 -91 674 -3366 685 -3425 4 -25 22 -112 39 -195 31
-153 50 -247 234 -1180 121 -610 124 -622 142 -652 36 -57 6 -55 716 -54 644
1 653 2 660 21 4 11 37 168 73 348 145 717 514 2550 661 3282 85 426 159 793
164 815 9 45 32 160 56 280 8 44 19 98 24 120 4 22 15 76 24 120 9 44 27 134
41 200 13 66 106 527 205 1024 210 1050 216 1079 280 1271 144 437 333 742
636 1029 163 155 331 270 557 384 101 51 137 77 137 101 0 3 -479 6 -1064 6
l-1065 0 -25 -22 c-29 -27 -29 -23 -162 -738 -14 -74 -30 -157 -35 -185 -6
-27 -14 -72 -19 -100 -5 -27 -23 -122 -40 -210 -28 -149 -47 -247 -70 -370 -5
-27 -16 -88 -25 -135 -9 -47 -20 -107 -25 -135 -5 -27 -23 -122 -40 -210 -17
-88 -37 -194 -44 -235 -8 -41 -33 -172 -56 -290 -22 -118 -45 -237 -50 -265
-5 -27 -34 -183 -65 -345 -53 -281 -74 -393 -95 -505 -5 -27 -22 -120 -39
-205 -16 -85 -32 -168 -35 -185 -28 -150 -89 -470 -97 -510 -5 -27 -12 -66
-15 -85 -3 -19 -16 -89 -29 -155 -13 -66 -35 -181 -49 -255 -46 -247 -85 -453
-132 -695 -25 -132 -50 -265 -55 -295 -6 -30 -21 -109 -34 -175 -20 -104 -37
-195 -87 -458 -6 -33 -15 -56 -22 -54 -10 3 -19 47 -86 402 -17 88 -35 180
-40 205 -5 25 -23 119 -40 210 -17 91 -37 197 -45 235 -15 74 -46 238 -90 470
-14 77 -32 172 -40 210 -8 39 -26 133 -40 210 -15 77 -35 183 -45 235 -10 52
-28 147 -40 210 -12 63 -32 169 -45 235 -13 66 -38 194 -55 285 -17 91 -35
185 -40 210 -10 49 -36 188 -44 234 -6 36 -50 265 -81 421 -20 103 -36 189
-95 500 -6 28 -16 84 -25 125 -8 41 -33 172 -55 290 -55 289 -81 426 -129 680
-106 553 -132 688 -141 730 -5 25 -23 119 -40 210 -17 91 -35 188 -41 215 -5
28 -20 104 -32 170 l-23 120 -1217 3 -1217 2 -2 -3602z M12025 9484 c-607 -72
-1080 -246 -1435 -529 -388 -310 -659 -790 -750 -1330 -34 -205 -43 -337 -43
-610 1 -270 13 -419 47 -595 136 -689 502 -1213 1132 -1625 66 -42 131 -86
146 -96 15 -10 29 -19 31 -19 3 0 52 -29 110 -64 106 -66 456 -253 842 -451
325 -167 653 -343 729 -392 259 -167 429 -385 520 -664 75 -231 78 -602 6
-831 -128 -412 -449 -662 -894 -698 -123 -10 -309 1 -423 25 -277 58 -503 217
-615 431 -127 244 -143 425 -147 1614 -1 394 -5 629 -12 653 -15 55 -71 111
-166 168 -396 233 -716 495 -925 754 -103 129 -174 235 -292 439 -62 105 -116
191 -121 191 -19 0 -26 -590 -20 -1810 7 -1471 16 -1736 70 -2028 68 -362 221
-701 436 -962 63 -77 216 -228 294 -291 258 -208 654 -384 1030 -460 11 -2 40
-8 65 -13 58 -12 202 -37 310 -52 131 -19 690 -21 825 -3 341 44 633 114 877
209 190 75 393 184 544 293 129 93 326 291 416 418 215 305 324 594 395 1054
26 165 25 873 0 1095 -40 338 -105 568 -233 815 -172 335 -430 611 -804 860
-52 35 -113 75 -135 90 -42 28 -293 177 -380 225 -27 16 -122 69 -210 118
-239 135 -419 233 -620 337 -343 177 -603 321 -705 390 -78 53 -194 162 -261
247 -238 299 -299 801 -143 1184 110 270 324 461 614 546 91 27 103 28 305 27
194 -1 218 -3 309 -27 380 -102 608 -368 680 -795 12 -71 36 -334 36 -396 0
-14 77 -16 755 -16 l755 0 0 263 c0 311 -20 476 -85 722 -71 267 -220 561
-392 775 -62 77 -231 245 -313 311 -151 123 -429 274 -630 342 -222 76 -472
130 -755 162 -162 18 -613 18 -770 -1z"/>
  </g>
</svg>
